<svg width="1024" height="1024" viewBox="0 0 1024 1024" fill="none" xmlns="http://www.w3.org/2000/svg">
  <defs>
    <linearGradient id="bgV2" x1="144" y1="112" x2="888" y2="924" gradientUnits="userSpaceOnUse">
      <stop stop-color="#FFF7F0"/>
      <stop offset="0.52" stop-color="#F5E7DC"/>
      <stop offset="1" stop-color="#EAD6C7"/>
    </linearGradient>
    <linearGradient id="panelV2" x1="226" y1="174" x2="814" y2="850" gradientUnits="userSpaceOnUse">
      <stop stop-color="#23262F"/>
      <stop offset="1" stop-color="#0E1015"/>
    </linearGradient>
    <linearGradient id="leftPlateV2" x1="346" y1="276" x2="548" y2="734" gradientUnits="userSpaceOnUse">
      <stop stop-color="#FFF8F1"/>
      <stop offset="1" stop-color="#F2DDD0"/>
    </linearGradient>
    <linearGradient id="rightPlateV2" x1="490" y1="302" x2="704" y2="792" gradientUnits="userSpaceOnUse">
      <stop stop-color="#FFAE88"/>
      <stop offset="1" stop-color="#E65D42"/>
    </linearGradient>
    <linearGradient id="ringV2" x1="336" y1="310" x2="702" y2="676" gradientUnits="userSpaceOnUse">
      <stop stop-color="#FFD7C4"/>
      <stop offset="1" stop-color="#FF8C67"/>
    </linearGradient>
    <filter id="panelShadowV2" x="140" y="138" width="744" height="784" filterUnits="userSpaceOnUse" color-interpolation-filters="sRGB">
      <feDropShadow dx="0" dy="28" stdDeviation="32" flood-color="#7C584A" flood-opacity="0.22"/>
    </filter>
    <filter id="objectShadowV2" x="252" y="214" width="528" height="634" filterUnits="userSpaceOnUse" color-interpolation-filters="sRGB">
      <feDropShadow dx="0" dy="16" stdDeviation="20" flood-color="#000000" flood-opacity="0.22"/>
    </filter>
  </defs>

  <rect x="80" y="80" width="864" height="864" rx="196" fill="url(#bgV2)"/>

  <g filter="url(#panelShadowV2)">
    <rect x="188" y="168" width="648" height="688" rx="184" fill="url(#panelV2)"/>
  </g>

  <circle cx="520" cy="506" r="194" stroke="url(#ringV2)" stroke-width="20" opacity="0.68"/>
  <circle cx="520" cy="506" r="232" stroke="#FFF3EA" stroke-width="8" opacity="0.26"/>

  <g filter="url(#objectShadowV2)">
    <path d="M322 336C322 280.772 366.772 236 422 236H524V760H418C365.533 760 323 717.467 323 665V336H322Z" fill="url(#leftPlateV2)"/>
    <path d="M490 280C490 255.699 509.699 236 534 236H568C625.99 236 673 283.01 673 341V666C673 718.467 630.467 761 578 761H490V280Z" fill="url(#rightPlateV2)"/>
    <path d="M486 238C512.156 250.26 530 276.829 530 307V692C530 721.547 512.902 747.102 488 760H454C472.627 747.171 485 726.089 485 702V314C485 281.455 466.784 253.164 439 238H486Z" fill="#101319"/>
    <path d="M531 311C531 282.833 548.698 257.708 574 248.537V748.662C548.698 739.49 531 714.365 531 686.199V311Z" fill="#0C0E13"/>
  </g>

  <path d="M278 300H338" stroke="#FF8F69" stroke-width="18" stroke-linecap="round"/>
  <path d="M252 366H312" stroke="#FF8F69" stroke-width="18" stroke-linecap="round"/>
  <path d="M710 654H770" stroke="#FFE6D7" stroke-width="18" stroke-linecap="round"/>
  <path d="M736 720H796" stroke="#FFE6D7" stroke-width="18" stroke-linecap="round"/>

  <path d="M316 220H392" stroke="#FFEADB" stroke-width="14" stroke-linecap="round"/>
  <path d="M278 220V296" stroke="#FFEADB" stroke-width="14" stroke-linecap="round"/>
  <path d="M708 792H632" stroke="#FF8F69" stroke-width="14" stroke-linecap="round"/>
  <path d="M746 792V716" stroke="#FF8F69" stroke-width="14" stroke-linecap="round"/>
</svg>
