<svg width="1024" height="1024" viewBox="0 0 1024 1024" fill="none" xmlns="http://www.w3.org/2000/svg">
  <defs>
    <linearGradient id="bg" x1="122" y1="108" x2="894" y2="924" gradientUnits="userSpaceOnUse">
      <stop stop-color="#FFF8F1"/>
      <stop offset="1" stop-color="#F5E4D7"/>
    </linearGradient>
    <linearGradient id="plate" x1="256" y1="176" x2="760" y2="852" gradientUnits="userSpaceOnUse">
      <stop stop-color="#24262C"/>
      <stop offset="1" stop-color="#0B0C0E"/>
    </linearGradient>
    <linearGradient id="accent" x1="552" y1="214" x2="786" y2="742" gradientUnits="userSpaceOnUse">
      <stop stop-color="#FF9A73"/>
      <stop offset="1" stop-color="#E55A3F"/>
    </linearGradient>
    <linearGradient id="paper" x1="316" y1="206" x2="560" y2="782" gradientUnits="userSpaceOnUse">
      <stop stop-color="#FFF7F0"/>
      <stop offset="1" stop-color="#FFF0E4"/>
    </linearGradient>
    <filter id="shadow" x="194" y="136" width="636" height="780" filterUnits="userSpaceOnUse" color-interpolation-filters="sRGB">
      <feDropShadow dx="0" dy="24" stdDeviation="28" flood-color="#9A6E5C" flood-opacity="0.20"/>
    </filter>
  </defs>

  <rect x="80" y="80" width="864" height="864" rx="196" fill="url(#bg)"/>

  <g filter="url(#shadow)">
    <rect x="244" y="164" width="520" height="696" rx="92" fill="url(#plate)"/>
  </g>

  <path d="M578 224C578 186.445 608.445 156 646 156H700C731.48 156 757 181.52 757 213V352C757 389.555 726.555 420 689 420H656C613.474 420 579 385.526 579 343V224H578Z" fill="url(#paper)"/>

  <path d="M530 288C530 229.458 577.458 182 636 182C694.542 182 742 229.458 742 288V356C742 414.542 694.542 462 636 462C577.458 462 530 414.542 530 356V288Z" fill="url(#accent)"/>

  <path d="M498 606C498 540.83 550.83 488 616 488H688C726.66 488 758 519.34 758 558V794C758 825.48 732.48 851 701 851H612C549.592 851 499 800.408 499 738V606H498Z" fill="url(#accent)"/>

  <path d="M372 318C372 263.876 415.876 220 470 220H530V424H470C415.876 424 372 380.124 372 326V318Z" fill="url(#paper)"/>
  <path d="M294 612C294 547.935 345.935 496 410 496H530V782H408C345.039 782 294 730.961 294 668V612Z" fill="url(#paper)"/>

  <path d="M208 288H282" stroke="#FF8F69" stroke-width="18" stroke-linecap="round"/>
  <path d="M190 362H262" stroke="#FF8F69" stroke-width="18" stroke-linecap="round"/>
  <path d="M766 664H842" stroke="#171412" stroke-width="18" stroke-linecap="round"/>
  <path d="M792 740H866" stroke="#171412" stroke-width="18" stroke-linecap="round"/>

  <path d="M520 182H548" stroke="#FFD3C0" stroke-width="10" stroke-linecap="round"/>
  <path d="M520 496H550" stroke="#FFD3C0" stroke-width="10" stroke-linecap="round"/>
</svg>
