<svg width="1024" height="1024" viewBox="0 0 1024 1024" fill="none" xmlns="http://www.w3.org/2000/svg">
  <defs>
    <linearGradient id="bgA" x1="148" y1="128" x2="884" y2="918" gradientUnits="userSpaceOnUse">
      <stop stop-color="#FFF4E8"/>
      <stop offset="1" stop-color="#F3DED0"/>
    </linearGradient>
    <linearGradient id="plateA" x1="320" y1="214" x2="756" y2="810" gradientUnits="userSpaceOnUse">
      <stop stop-color="#202022"/>
      <stop offset="1" stop-color="#0D0D0F"/>
    </linearGradient>
    <linearGradient id="accentA" x1="702" y1="278" x2="836" y2="414" gradientUnits="userSpaceOnUse">
      <stop stop-color="#FF8D66"/>
      <stop offset="1" stop-color="#E7553A"/>
    </linearGradient>
    <filter id="shadowA" x="182" y="132" width="660" height="760" filterUnits="userSpaceOnUse" color-interpolation-filters="sRGB">
      <feDropShadow dx="0" dy="28" stdDeviation="34" flood-color="#7A5143" flood-opacity="0.18"/>
    </filter>
  </defs>
  <rect x="80" y="80" width="864" height="864" rx="196" fill="url(#bgA)"/>
  <g filter="url(#shadowA)">
    <path d="M300 198C300 172.595 320.595 152 346 152H658C683.405 152 704 172.595 704 198V708C704 733.405 683.405 754 658 754H346C320.595 754 300 733.405 300 708V198Z" fill="url(#plateA)"/>
    <path d="M646 152L760 266V682C760 707.405 739.405 728 714 728H704V198C704 172.595 683.405 152 658 152H646Z" fill="#2B2B2F"/>
  </g>
  <path d="M646 152L760 266H688C664.804 266 646 247.196 646 224V152Z" fill="url(#accentA)"/>
  <path d="M401 362C401 297.383 453.383 245 518 245C582.617 245 635 297.383 635 362V441.537C635 503.843 584.49 554.353 522.184 554.353H513.816C451.51 554.353 401 503.843 401 441.537V362Z" fill="#FFF7EF"/>
  <path d="M355 652C355 587.383 407.383 535 472 535H566C630.617 535 683 587.383 683 652V707H355V652Z" fill="#FFF7EF"/>
  <path d="M375 362C375 283.028 439.028 219 518 219C596.972 219 661 283.028 661 362V441.537C661 518.202 598.848 580.353 522.184 580.353H513.816C437.152 580.353 375 518.202 375 441.537V362Z" stroke="#FF845F" stroke-width="24"/>
  <path d="M329 652C329 573.028 393.028 509 472 509H566C644.972 509 709 573.028 709 652V731H329V652Z" stroke="#FF845F" stroke-width="24"/>
  <circle cx="740" cy="286" r="66" fill="#FFF4E8"/>
  <path d="M709 286H771" stroke="#18181B" stroke-width="16" stroke-linecap="round"/>
  <path d="M740 255V317" stroke="#18181B" stroke-width="16" stroke-linecap="round"/>
</svg>
