<svg width="1024" height="1024" viewBox="0 0 1024 1024" fill="none" xmlns="http://www.w3.org/2000/svg">
  <defs>
    <linearGradient id="bgB" x1="140" y1="110" x2="854" y2="904" gradientUnits="userSpaceOnUse">
      <stop stop-color="#17171B"/>
      <stop offset="1" stop-color="#0A0A0D"/>
    </linearGradient>
    <linearGradient id="ringB" x1="292" y1="234" x2="720" y2="742" gradientUnits="userSpaceOnUse">
      <stop stop-color="#FFF3E5"/>
      <stop offset="1" stop-color="#FFD9C7"/>
    </linearGradient>
    <linearGradient id="accentB" x1="612" y1="612" x2="822" y2="822" gradientUnits="userSpaceOnUse">
      <stop stop-color="#FF8A63"/>
      <stop offset="1" stop-color="#E85A41"/>
    </linearGradient>
  </defs>
  <rect x="80" y="80" width="864" height="864" rx="196" fill="url(#bgB)"/>
  <circle cx="512" cy="512" r="258" fill="none" stroke="url(#ringB)" stroke-width="34"/>
  <path d="M395 430C395 374.772 439.772 330 495 330H525C580.228 330 625 374.772 625 430V446C625 498.467 582.467 541 530 541H490C437.533 541 395 498.467 395 446V430Z" fill="#FFF5EA"/>
  <path d="M328 670C328 602.621 382.621 548 450 548H574C641.379 548 696 602.621 696 670V700H328V670Z" fill="#FFF5EA"/>
  <path d="M346 302C392 244.667 447 216 511 216C593 216 651.667 252.667 687 326" stroke="#FF8A63" stroke-width="20" stroke-linecap="round"/>
  <path d="M768 578C768 663.604 698.604 733 613 733H595" stroke="url(#accentB)" stroke-width="24" stroke-linecap="round"/>
  <circle cx="788" cy="548" r="52" fill="url(#accentB)"/>
  <path d="M769 547L783 561L810 534" stroke="#FFF6EF" stroke-width="14" stroke-linecap="round" stroke-linejoin="round"/>
  <path d="M748 402L804 402" stroke="#FFF0E4" stroke-width="18" stroke-linecap="round"/>
  <path d="M220 512L276 512" stroke="#FFF0E4" stroke-width="18" stroke-linecap="round"/>
  <path d="M513 220L513 276" stroke="#FFF0E4" stroke-width="18" stroke-linecap="round"/>
</svg>
