<svg width="1024" height="1024" viewBox="0 0 1024 1024" fill="none" xmlns="http://www.w3.org/2000/svg">
  <defs>
    <linearGradient id="bgTheme" x1="138" y1="108" x2="878" y2="912" gradientUnits="userSpaceOnUse">
      <stop stop-color="#FFF5EB"/>
      <stop offset="0.52" stop-color="#FFF9F1"/>
      <stop offset="1" stop-color="#FFF0E2"/>
    </linearGradient>
    <linearGradient id="ringTheme" x1="286" y1="228" x2="728" y2="750" gradientUnits="userSpaceOnUse">
      <stop stop-color="#FFD8C8"/>
      <stop offset="1" stop-color="#E3D0C0"/>
    </linearGradient>
    <linearGradient id="badgeTheme" x1="624" y1="610" x2="826" y2="820" gradientUnits="userSpaceOnUse">
      <stop stop-color="#FF8F69"/>
      <stop offset="1" stop-color="#E6573D"/>
    </linearGradient>
    <linearGradient id="bodyTheme" x1="352" y1="326" x2="646" y2="720" gradientUnits="userSpaceOnUse">
      <stop stop-color="#23262C"/>
      <stop offset="1" stop-color="#0B0C0E"/>
    </linearGradient>
    <filter id="shadowTheme" x="188" y="184" width="648" height="620" filterUnits="userSpaceOnUse" color-interpolation-filters="sRGB">
      <feDropShadow dx="0" dy="20" stdDeviation="24" flood-color="#7D6255" flood-opacity="0.18"/>
    </filter>
  </defs>

  <rect x="80" y="80" width="864" height="864" rx="196" fill="url(#bgTheme)"/>
  <circle cx="512" cy="512" r="258" fill="none" stroke="url(#ringTheme)" stroke-width="34"/>
  <circle cx="512" cy="512" r="214" fill="#FFF9F4" opacity="0.82"/>

  <g filter="url(#shadowTheme)">
    <path d="M395 430C395 374.772 439.772 330 495 330H525C580.228 330 625 374.772 625 430V446C625 498.467 582.467 541 530 541H490C437.533 541 395 498.467 395 446V430Z" fill="url(#bodyTheme)"/>
    <path d="M328 670C328 602.621 382.621 548 450 548H574C641.379 548 696 602.621 696 670V700H328V670Z" fill="url(#bodyTheme)"/>
  </g>

  <path d="M346 302C392 244.667 447 216 511 216C593 216 651.667 252.667 687 326" stroke="#FF8F69" stroke-width="20" stroke-linecap="round"/>
  <path d="M768 578C768 663.604 698.604 733 613 733H595" stroke="url(#badgeTheme)" stroke-width="24" stroke-linecap="round"/>
  <circle cx="788" cy="548" r="52" fill="url(#badgeTheme)"/>
  <path d="M769 547L783 561L810 534" stroke="#FFF8F1" stroke-width="14" stroke-linecap="round" stroke-linejoin="round"/>

  <path d="M748 402L804 402" stroke="#171412" stroke-width="18" stroke-linecap="round" opacity="0.92"/>
  <path d="M220 512L276 512" stroke="#171412" stroke-width="18" stroke-linecap="round" opacity="0.92"/>
  <path d="M513 220L513 276" stroke="#171412" stroke-width="18" stroke-linecap="round" opacity="0.92"/>
</svg>
