<svg width="1024" height="1024" viewBox="0 0 1024 1024" fill="none" xmlns="http://www.w3.org/2000/svg">
  <defs>
    <linearGradient id="bgC" x1="122" y1="112" x2="890" y2="920" gradientUnits="userSpaceOnUse">
      <stop stop-color="#FFF5EB"/>
      <stop offset="1" stop-color="#F7E4D7"/>
    </linearGradient>
    <linearGradient id="panelC" x1="270" y1="232" x2="734" y2="786" gradientUnits="userSpaceOnUse">
      <stop stop-color="#1D1E22"/>
      <stop offset="1" stop-color="#0B0C0E"/>
    </linearGradient>
    <linearGradient id="objC" x1="466" y1="240" x2="744" y2="736" gradientUnits="userSpaceOnUse">
      <stop stop-color="#FF8F69"/>
      <stop offset="1" stop-color="#E6573D"/>
    </linearGradient>
    <filter id="shadowC" x="204" y="146" width="616" height="760" filterUnits="userSpaceOnUse" color-interpolation-filters="sRGB">
      <feDropShadow dx="0" dy="22" stdDeviation="28" flood-color="#8D6658" flood-opacity="0.18"/>
    </filter>
  </defs>
  <rect x="80" y="80" width="864" height="864" rx="196" fill="url(#bgC)"/>
  <g filter="url(#shadowC)">
    <rect x="250" y="172" width="500" height="680" rx="88" fill="url(#panelC)"/>
  </g>
  <path d="M594 230C594 191.34 625.34 160 664 160H700C728.719 160 752 183.281 752 212V346C752 384.66 720.66 416 682 416H666C626.236 416 594 383.764 594 344V230Z" fill="#FFF4EA"/>
  <path d="M538 292C538 233.458 585.458 186 644 186C702.542 186 750 233.458 750 292V356C750 415.647 701.647 464 642 464C584.562 464 538 417.438 538 360V292Z" fill="url(#objC)"/>
  <path d="M498 620C498 545.441 558.441 485 633 485H694C726.033 485 752 510.967 752 543V794C752 825.48 726.48 851 695 851H613C549.487 851 498 799.513 498 736V620Z" fill="url(#objC)"/>
  <path d="M376 322C376 267.876 419.876 224 474 224H530V420H474C419.876 420 376 376.124 376 322Z" fill="#FFF4EA"/>
  <path d="M306 620C306 545.441 366.441 485 441 485H530V776H421C357.487 776 306 724.513 306 661V620Z" fill="#FFF4EA"/>
  <path d="M214 282L282 282" stroke="#FF8F69" stroke-width="18" stroke-linecap="round"/>
  <path d="M190 352L258 352" stroke="#FF8F69" stroke-width="18" stroke-linecap="round"/>
  <path d="M766 674L834 674" stroke="#1C1C20" stroke-width="18" stroke-linecap="round"/>
  <path d="M790 744L858 744" stroke="#1C1C20" stroke-width="18" stroke-linecap="round"/>
</svg>
