<svg width="720" height="1480" viewBox="0 0 720 1480" fill="none" xmlns="http://www.w3.org/2000/svg">
  <rect width="720" height="1480" rx="56" fill="#FFF5EB"/>
  <rect x="42" y="28" width="636" height="1424" rx="54" fill="#FFF9F1" stroke="#E3D0C0" stroke-width="2"/>
  <text x="86" y="108" fill="#171412" font-family="Helvetica, Arial, sans-serif" font-size="28" font-weight="700">Editor</text>
  <text x="494" y="108" fill="#E6573D" font-family="Helvetica, Arial, sans-serif" font-size="22" font-weight="700">Buy Once</text>
  <text x="588" y="108" fill="#E6573D" font-family="Helvetica, Arial, sans-serif" font-size="22" font-weight="700">Export</text>

  <rect x="74" y="148" width="572" height="156" rx="34" fill="#FFFDF9" stroke="#E3D0C0" stroke-width="2"/>
  <text x="108" y="208" fill="#171412" font-family="Helvetica, Arial, sans-serif" font-size="34" font-weight="700">Cutout Mar 14, 16:30</text>
  <text x="108" y="248" fill="#6D625A" font-family="Helvetica, Arial, sans-serif" font-size="24">Recognition locked the selected object.</text>
  <rect x="470" y="184" width="142" height="72" rx="24" fill="#FFF0E2"/>
  <text x="498" y="214" fill="#6D625A" font-family="Helvetica, Arial, sans-serif" font-size="14" font-weight="700">SELECTED</text>
  <text x="498" y="240" fill="#171412" font-family="Helvetica, Arial, sans-serif" font-size="20" font-weight="700">Primary</text>

  <rect x="74" y="332" width="572" height="620" rx="34" fill="#FFFDF9" stroke="#E3D0C0" stroke-width="2"/>
  <text x="108" y="388" fill="#171412" font-family="Helvetica, Arial, sans-serif" font-size="28" font-weight="700">Stage Preview</text>
  <text x="108" y="424" fill="#6D625A" font-family="Helvetica, Arial, sans-serif" font-size="22">Dark stage for image focus, warm controls for edits.</text>
  <rect x="430" y="372" width="182" height="46" rx="18" fill="#FFF0E2"/>
  <rect x="434" y="376" width="86" height="38" rx="16" fill="#FF8F69"/>
  <text x="456" y="402" fill="#FFFFFF" font-family="Helvetica, Arial, sans-serif" font-size="16" font-weight="700">Cutout</text>
  <text x="548" y="402" fill="#171412" font-family="Helvetica, Arial, sans-serif" font-size="16" font-weight="700">Original</text>
  <rect x="108" y="454" width="504" height="418" rx="28" fill="#0B0C0E"/>
  <circle cx="408" cy="566" r="120" fill="#FF8F69" fill-opacity="0.18"/>
  <circle cx="360" cy="650" r="150" fill="#FFF4EA"/>
  <path d="M302 580C332 540 392 528 430 582" stroke="#FF8F69" stroke-width="10" stroke-linecap="round"/>
  <rect x="128" y="898" width="112" height="36" rx="18" fill="#FF8F69"/>
  <rect x="252" y="898" width="92" height="36" rx="18" fill="#FFF0E2"/>
  <rect x="356" y="898" width="126" height="36" rx="18" fill="#FFF0E2"/>
  <rect x="494" y="898" width="98" height="36" rx="18" fill="#FFF0E2"/>
</svg>
