<svg width="720" height="1480" viewBox="0 0 720 1480" fill="none" xmlns="http://www.w3.org/2000/svg">
  <rect width="720" height="1480" rx="56" fill="#FFF5EB"/>
  <rect x="42" y="28" width="636" height="1424" rx="54" fill="#FFF9F1" stroke="#E3D0C0" stroke-width="2"/>
  <text x="86" y="108" fill="#171412" font-family="Helvetica, Arial, sans-serif" font-size="28" font-weight="700">Export</text>
  <text x="582" y="108" fill="#6D625A" font-family="Helvetica, Arial, sans-serif" font-size="24" font-weight="700">Done</text>

  <rect x="74" y="148" width="572" height="202" rx="34" fill="#FFFDF9" stroke="#E3D0C0" stroke-width="2"/>
  <text x="108" y="208" fill="#171412" font-family="Helvetica, Arial, sans-serif" font-size="30" font-weight="700">Output Summary</text>
  <rect x="108" y="230" width="128" height="94" rx="20" fill="#0B0C0E"/>
  <circle cx="172" cy="276" r="34" fill="#FFF4EA"/>
  <text x="266" y="246" fill="#6D625A" font-family="Helvetica, Arial, sans-serif" font-size="22">Object  Primary Subject</text>
  <text x="266" y="278" fill="#6D625A" font-family="Helvetica, Arial, sans-serif" font-size="22">Shape  Circle</text>
  <text x="266" y="310" fill="#6D625A" font-family="Helvetica, Arial, sans-serif" font-size="22">Color  Original</text>

  <rect x="74" y="382" width="572" height="164" rx="34" fill="#FFFDF9" stroke="#E3D0C0" stroke-width="2"/>
  <text x="108" y="442" fill="#171412" font-family="Helvetica, Arial, sans-serif" font-size="30" font-weight="700">Format First</text>
  <text x="108" y="478" fill="#6D625A" font-family="Helvetica, Arial, sans-serif" font-size="22">Choose the file type before saving.</text>
  <rect x="108" y="496" width="110" height="42" rx="18" fill="#FF8F69"/>
  <rect x="232" y="496" width="110" height="42" rx="18" fill="#FFF9F1" stroke="#E3D0C0" stroke-width="2"/>
  <text x="146" y="523" fill="#FFFFFF" font-family="Helvetica, Arial, sans-serif" font-size="18" font-weight="700">PNG</text>
  <text x="270" y="523" fill="#171412" font-family="Helvetica, Arial, sans-serif" font-size="18" font-weight="700">JPG</text>

  <rect x="74" y="578" width="572" height="246" rx="34" fill="#FFFDF9" stroke="#E3D0C0" stroke-width="2"/>
  <text x="108" y="638" fill="#171412" font-family="Helvetica, Arial, sans-serif" font-size="30" font-weight="700">Resolution</text>
  <rect x="108" y="666" width="504" height="60" rx="22" fill="#FFF0E2"/>
  <rect x="108" y="740" width="504" height="60" rx="22" fill="#FFE7DC" stroke="#FF8F69" stroke-width="2"/>
  <text x="136" y="704" fill="#171412" font-family="Helvetica, Arial, sans-serif" font-size="22" font-weight="700">Standard</text>
  <text x="136" y="778" fill="#171412" font-family="Helvetica, Arial, sans-serif" font-size="22" font-weight="700">High Resolution</text>

  <rect x="74" y="856" width="572" height="236" rx="34" fill="#FFFDF9" stroke="#E3D0C0" stroke-width="2"/>
  <text x="108" y="916" fill="#171412" font-family="Helvetica, Arial, sans-serif" font-size="30" font-weight="700">Save or Share</text>
  <rect x="108" y="946" width="504" height="74" rx="28" fill="#FF8F69"/>
  <rect x="108" y="1040" width="504" height="58" rx="22" fill="#FFF9F1" stroke="#E3D0C0" stroke-width="2"/>
  <text x="244" y="994" fill="#FFFFFF" font-family="Helvetica, Arial, sans-serif" font-size="28" font-weight="700">Save to Photos</text>
  <text x="278" y="1076" fill="#171412" font-family="Helvetica, Arial, sans-serif" font-size="24" font-weight="700">Share Result</text>
</svg>
