<svg width="1600" height="1000" viewBox="0 0 1600 1000" fill="none" xmlns="http://www.w3.org/2000/svg">
  <rect width="1600" height="1000" rx="48" fill="#0B0C10"/>
  <text x="80" y="120" fill="#F6EDE5" font-family="Helvetica, Arial, sans-serif" font-size="54" font-weight="700">UI Option B · Precision Dark</text>
  <text x="80" y="168" fill="#B2ABA3" font-family="Helvetica, Arial, sans-serif" font-size="24">Darker shell, thinner lines, more serious editing-tool feeling.</text>

  <rect x="84" y="230" width="420" height="680" rx="54" fill="#111318" stroke="#262A31" stroke-width="4"/>
  <text x="118" y="314" fill="#F6EDE5" font-family="Helvetica, Arial, sans-serif" font-size="42" font-weight="700">Recent Work</text>
  <rect x="118" y="354" width="352" height="188" rx="28" fill="#0A0B0E" stroke="#2A2F37" stroke-width="3"/>
  <rect x="118" y="568" width="170" height="170" rx="24" fill="#0A0B0E" stroke="#2A2F37" stroke-width="3"/>
  <rect x="300" y="568" width="170" height="170" rx="24" fill="#0A0B0E" stroke="#2A2F37" stroke-width="3"/>
  <rect x="118" y="776" width="352" height="72" rx="26" fill="#E66045"/>
  <text x="214" y="822" fill="white" font-family="Helvetica, Arial, sans-serif" font-size="28" font-weight="700">Import Image</text>

  <rect x="592" y="230" width="420" height="680" rx="54" fill="#111318" stroke="#262A31" stroke-width="4"/>
  <rect x="618" y="256" width="368" height="628" rx="34" fill="#050608"/>
  <ellipse cx="814" cy="520" rx="126" ry="176" fill="#F1E8DD"/>
  <path d="M702 418C768 370 870 360 930 440" stroke="#43C4F3" stroke-width="6" stroke-linecap="round"/>
  <path d="M650 560C680 624 744 660 788 672" stroke="#FFD54D" stroke-width="6" stroke-linecap="round"/>
  <path d="M914 620C886 580 846 552 792 548" stroke="#84EA72" stroke-width="6" stroke-linecap="round"/>
  <rect x="656" y="792" width="290" height="46" rx="23" fill="#111318" stroke="#2B3138" stroke-width="3"/>
  <text x="714" y="823" fill="#F6EDE5" font-family="Helvetica, Arial, sans-serif" font-size="22">Tap one object to isolate</text>

  <rect x="1100" y="230" width="420" height="680" rx="54" fill="#111318" stroke="#262A31" stroke-width="4"/>
  <rect x="1130" y="276" width="360" height="452" rx="32" fill="#050608"/>
  <rect x="1160" y="760" width="300" height="48" rx="24" fill="#171A20"/>
  <rect x="1130" y="830" width="110" height="28" rx="14" fill="#E66045"/>
  <rect x="1260" y="830" width="110" height="28" rx="14" fill="#2BC5F4"/>
  <rect x="1390" y="830" width="100" height="28" rx="14" fill="#9AE36A"/>
  <path d="M1308 354C1240 370 1210 420 1210 480C1210 576 1274 646 1334 646C1386 646 1430 610 1430 556" stroke="#F5EBE0" stroke-width="22" stroke-linecap="round"/>
  <text x="1162" y="796" fill="#BEB6AD" font-family="Helvetica, Arial, sans-serif" font-size="22">Precision tools dock</text>
</svg>
