<svg width="1600" height="1000" viewBox="0 0 1600 1000" fill="none" xmlns="http://www.w3.org/2000/svg">
  <rect width="1600" height="1000" rx="48" fill="#FFF5EB"/>
  <text x="80" y="120" fill="#171412" font-family="Helvetica, Arial, sans-serif" font-size="54" font-weight="700">UI Direction · Split Stage Harmony</text>
  <text x="80" y="168" fill="#6D625A" font-family="Helvetica, Arial, sans-serif" font-size="24">Warm shell, dark plate, coral selection cues. Built to match the chosen icon.</text>

  <rect x="84" y="230" width="420" height="680" rx="54" fill="#FFF9F1" stroke="#E3D0C0" stroke-width="4"/>
  <rect x="116" y="266" width="356" height="186" rx="30" fill="#FFF0E2"/>
  <text x="142" y="324" fill="#171412" font-family="Helvetica, Arial, sans-serif" font-size="40" font-weight="700">Upload</text>
  <text x="142" y="372" fill="#6D625A" font-family="Helvetica, Arial, sans-serif" font-size="22">Import one image and let the app scan</text>
  <text x="142" y="402" fill="#6D625A" font-family="Helvetica, Arial, sans-serif" font-size="22">foreground objects for selection.</text>
  <rect x="142" y="640" width="194" height="58" rx="24" fill="#FF8F69"/>
  <text x="186" y="677" fill="#FFFFFF" font-family="Helvetica, Arial, sans-serif" font-size="26" font-weight="700">Select Photo</text>
  <rect x="116" y="726" width="356" height="116" rx="28" fill="#FFF4EA"/>
  <text x="146" y="774" fill="#171412" font-family="Helvetica, Arial, sans-serif" font-size="26" font-weight="700">Recent objects</text>
  <rect x="146" y="790" width="70" height="22" rx="11" fill="#0B0C0E"/>
  <rect x="230" y="790" width="70" height="22" rx="11" fill="#0B0C0E"/>
  <rect x="314" y="790" width="70" height="22" rx="11" fill="#0B0C0E"/>

  <rect x="592" y="230" width="420" height="680" rx="54" fill="#FFF9F1" stroke="#E3D0C0" stroke-width="4"/>
  <rect x="620" y="276" width="364" height="446" rx="34" fill="#0B0C0E"/>
  <path d="M732 338C778 308 832 298 886 314V698C810 698 748 650 720 578L694 508C676 458 690 384 732 338Z" fill="#FFF4EA"/>
  <path d="M886 314C924 328 952 356 970 394V664C956 684 936 698 914 708C888 720 860 726 826 726V512C826 438 850 370 886 314Z" fill="#FF8F69"/>
  <path d="M674 392L704 392" stroke="#FF8F69" stroke-width="8" stroke-linecap="round"/>
  <path d="M662 468L692 468" stroke="#FFD3C0" stroke-width="8" stroke-linecap="round"/>
  <path d="M944 566L974 566" stroke="#171412" stroke-width="8" stroke-linecap="round"/>
  <rect x="640" y="752" width="324" height="82" rx="28" fill="#FFF0E2"/>
  <text x="680" y="800" fill="#171412" font-family="Helvetica, Arial, sans-serif" font-size="26" font-weight="700">Tap the outlined object to isolate</text>

  <rect x="1100" y="230" width="420" height="680" rx="54" fill="#FFF9F1" stroke="#E3D0C0" stroke-width="4"/>
  <rect x="1132" y="276" width="356" height="430" rx="34" fill="#0B0C0E"/>
  <circle cx="1310" cy="494" r="146" fill="#FFF4EA"/>
  <path d="M1252 426C1280 392 1334 384 1370 428" stroke="#FF8F69" stroke-width="10" stroke-linecap="round"/>
  <rect x="1132" y="736" width="356" height="56" rx="24" fill="#FFF0E2"/>
  <rect x="1132" y="818" width="172" height="52" rx="24" fill="#FF8F69"/>
  <rect x="1316" y="818" width="172" height="52" rx="24" fill="#FFF4EA" stroke="#E3D0C0" stroke-width="3"/>
  <text x="1188" y="771" fill="#171412" font-family="Helvetica, Arial, sans-serif" font-size="24" font-weight="700">Background · Shape · Format</text>
  <text x="1190" y="851" fill="#FFFFFF" font-family="Helvetica, Arial, sans-serif" font-size="24" font-weight="700">Save PNG</text>
  <text x="1374" y="851" fill="#171412" font-family="Helvetica, Arial, sans-serif" font-size="24" font-weight="700">JPG</text>
</svg>
