<svg width="1600" height="1000" viewBox="0 0 1600 1000" fill="none" xmlns="http://www.w3.org/2000/svg">
  <defs>
    <linearGradient id="shell" x1="116" y1="88" x2="1460" y2="930" gradientUnits="userSpaceOnUse">
      <stop stop-color="#122D9A"/>
      <stop offset="0.35" stop-color="#09194E"/>
      <stop offset="1" stop-color="#040915"/>
    </linearGradient>
    <linearGradient id="cardStroke" x1="84" y1="230" x2="504" y2="910" gradientUnits="userSpaceOnUse">
      <stop stop-color="#4A8EFF"/>
      <stop offset="1" stop-color="#1CC2FF"/>
    </linearGradient>
    <linearGradient id="glowFill" x1="620" y1="276" x2="980" y2="850" gradientUnits="userSpaceOnUse">
      <stop stop-color="#132F9C"/>
      <stop offset="1" stop-color="#070D22"/>
    </linearGradient>
  </defs>
  <rect width="1600" height="1000" rx="48" fill="url(#shell)"/>
  <text x="80" y="120" fill="#F5F9FF" font-family="Helvetica, Arial, sans-serif" font-size="54" font-weight="700">Neon Precision · Brand Direction</text>
  <text x="80" y="168" fill="#B6C8EA" font-family="Helvetica, Arial, sans-serif" font-size="24">Blue future-tech shell adapted for a general object cutout app.</text>

  <rect x="84" y="230" width="420" height="680" rx="54" fill="rgba(7,13,34,0.72)" stroke="url(#cardStroke)" stroke-width="4"/>
  <rect x="116" y="266" width="356" height="196" rx="30" fill="#F7FAFF"/>
  <text x="142" y="326" fill="#08122E" font-family="Helvetica, Arial, sans-serif" font-size="42" font-weight="700">Import</text>
  <text x="142" y="374" fill="#34405E" font-family="Helvetica, Arial, sans-serif" font-size="22">Drop in one image and let the app</text>
  <text x="142" y="404" fill="#34405E" font-family="Helvetica, Arial, sans-serif" font-size="22">scan foreground objects locally.</text>
  <rect x="142" y="660" width="190" height="58" rx="24" fill="#2E7AFF"/>
  <text x="185" y="697" fill="#FFFFFF" font-family="Helvetica, Arial, sans-serif" font-size="26" font-weight="700">Upload Image</text>
  <rect x="116" y="742" width="168" height="120" rx="24" fill="#091228" stroke="#1B56D8" stroke-width="3"/>
  <rect x="304" y="742" width="168" height="120" rx="24" fill="#091228" stroke="#1B56D8" stroke-width="3"/>
  <path d="M168 786H232" stroke="#5CB8FF" stroke-width="10" stroke-linecap="round"/>
  <path d="M356 786H420" stroke="#5CB8FF" stroke-width="10" stroke-linecap="round"/>

  <rect x="592" y="230" width="420" height="680" rx="54" fill="url(#glowFill)" stroke="#2E74FF" stroke-width="4"/>
  <rect x="620" y="276" width="364" height="446" rx="34" fill="#08101F"/>
  <ellipse cx="802" cy="486" rx="126" ry="176" fill="#F4F8FF"/>
  <path d="M690 404C748 362 850 352 916 424" stroke="#3CC5FF" stroke-width="8" stroke-linecap="round"/>
  <path d="M644 542C680 628 762 674 846 686" stroke="#2F7BFF" stroke-width="8" stroke-linecap="round"/>
  <path d="M914 490C886 446 842 420 800 414" stroke="#8FD6FF" stroke-width="8" stroke-linecap="round"/>
  <circle cx="694" cy="402" r="18" fill="#38C6FF"/>
  <circle cx="646" cy="542" r="18" fill="#2E7AFF"/>
  <circle cx="914" cy="490" r="18" fill="#9BE2FF"/>
  <text x="689" y="409" fill="#04112D" font-family="Helvetica, Arial, sans-serif" font-size="16" font-weight="700">1</text>
  <text x="641" y="549" fill="#FFFFFF" font-family="Helvetica, Arial, sans-serif" font-size="16" font-weight="700">2</text>
  <text x="909" y="497" fill="#04112D" font-family="Helvetica, Arial, sans-serif" font-size="16" font-weight="700">3</text>
  <rect x="642" y="752" width="320" height="82" rx="28" fill="#0E1730" stroke="#235EE6" stroke-width="3"/>
  <text x="676" y="800" fill="#F5F9FF" font-family="Helvetica, Arial, sans-serif" font-size="26" font-weight="700">Tap one detected object</text>

  <rect x="1100" y="230" width="420" height="680" rx="54" fill="rgba(7,13,34,0.72)" stroke="#2E74FF" stroke-width="4"/>
  <rect x="1132" y="276" width="356" height="430" rx="34" fill="#07101F"/>
  <circle cx="1310" cy="492" r="150" fill="#F4F8FF"/>
  <path d="M1252 420C1282 390 1334 384 1370 430" stroke="#2E7AFF" stroke-width="10" stroke-linecap="round"/>
  <rect x="1132" y="736" width="110" height="52" rx="22" fill="#2E7AFF"/>
  <rect x="1260" y="736" width="110" height="52" rx="22" fill="#0D1730" stroke="#2662EA" stroke-width="3"/>
  <rect x="1388" y="736" width="100" height="52" rx="22" fill="#0D1730" stroke="#26BFFF" stroke-width="3"/>
  <rect x="1132" y="816" width="356" height="52" rx="24" fill="#F7FAFF"/>
  <text x="1168" y="769" fill="#FFFFFF" font-family="Helvetica, Arial, sans-serif" font-size="22" font-weight="700">PNG</text>
  <text x="1298" y="769" fill="#DDE8FF" font-family="Helvetica, Arial, sans-serif" font-size="22" font-weight="700">JPG</text>
  <text x="1410" y="769" fill="#9BE2FF" font-family="Helvetica, Arial, sans-serif" font-size="22" font-weight="700">WEB</text>
  <text x="1232" y="849" fill="#08122E" font-family="Helvetica, Arial, sans-serif" font-size="28" font-weight="700">Save Result</text>
</svg>
