<svg width="720" height="1480" viewBox="0 0 720 1480" fill="none" xmlns="http://www.w3.org/2000/svg">
  <rect width="720" height="1480" rx="56" fill="#FFF5EB"/>
  <rect x="42" y="28" width="636" height="1424" rx="54" fill="#FFF9F1" stroke="#E3D0C0" stroke-width="2"/>
  <text x="86" y="108" fill="#171412" font-family="Helvetica, Arial, sans-serif" font-size="28" font-weight="700">Recognize</text>
  <text x="564" y="108" fill="#E6573D" font-family="Helvetica, Arial, sans-serif" font-size="24" font-weight="700">Skip</text>

  <rect x="74" y="148" width="572" height="176" rx="34" fill="#FFFDF9" stroke="#E3D0C0" stroke-width="2"/>
  <rect x="108" y="176" width="90" height="34" rx="17" fill="#FFF0E2"/>
  <rect x="210" y="176" width="124" height="34" rx="17" fill="#FFD8C8"/>
  <rect x="346" y="176" width="94" height="34" rx="17" fill="#FFD8C8"/>
  <text x="108" y="254" fill="#171412" font-family="Helvetica, Arial, sans-serif" font-size="38" font-weight="700">Tap the object to isolate.</text>

  <rect x="74" y="352" width="572" height="552" rx="34" fill="#0B0C0E"/>
  <circle cx="520" cy="430" r="116" fill="#FF8F69" fill-opacity="0.20"/>
  <text x="108" y="406" fill="#FFFFFF" font-family="Helvetica, Arial, sans-serif" font-size="28" font-weight="700">Recognition Stage</text>
  <rect x="512" y="374" width="100" height="36" rx="18" fill="#FF8F69"/>
  <text x="538" y="398" fill="#FFFFFF" font-family="Helvetica, Arial, sans-serif" font-size="16" font-weight="700">3 found</text>
  <rect x="112" y="444" width="496" height="296" rx="28" fill="#15171C"/>

  <path d="M236 506C286 454 352 442 430 456C462 470 488 504 498 566C496 650 462 714 384 742C290 742 232 680 214 600C206 564 214 530 236 506Z" fill="#FF8F69" fill-opacity="0.14" stroke="#FF8F69" stroke-width="5"/>
  <path d="M156 596C178 576 212 574 232 592C238 618 228 650 198 664C168 658 150 634 156 596Z" fill="#FFFFFF" fill-opacity="0.04" stroke="#FFD8C8" stroke-width="3" stroke-dasharray="10 10"/>
  <path d="M474 540C506 526 532 532 548 558C544 598 520 622 488 618C466 602 462 574 474 540Z" fill="#FFFFFF" fill-opacity="0.03" stroke="#FFFFFF" stroke-opacity="0.72" stroke-width="3" stroke-dasharray="10 10"/>

  <rect x="198" y="458" width="142" height="34" rx="17" fill="#FFF0E2"/>
  <text x="222" y="481" fill="#171412" font-family="Helvetica, Arial, sans-serif" font-size="16" font-weight="700">Primary Subject</text>
  <rect x="142" y="568" width="98" height="30" rx="15" fill="#101319"/>
  <text x="166" y="588" fill="#FFFFFF" font-family="Helvetica, Arial, sans-serif" font-size="14" font-weight="700">Accessory</text>

  <rect x="74" y="930" width="572" height="312" rx="34" fill="#FFFDF9" stroke="#E3D0C0" stroke-width="2"/>
  <text x="108" y="986" fill="#171412" font-family="Helvetica, Arial, sans-serif" font-size="30" font-weight="700">Detected Objects</text>
  <rect x="108" y="1018" width="504" height="70" rx="24" fill="#FFE7DC" stroke="#FF8F69" stroke-width="2"/>
  <text x="134" y="1060" fill="#171412" font-family="Helvetica, Arial, sans-serif" font-size="24" font-weight="700">Primary Subject</text>
  <text x="504" y="1060" fill="#E6573D" font-family="Helvetica, Arial, sans-serif" font-size="22" font-weight="700">96%</text>
  <rect x="108" y="1102" width="504" height="58" rx="22" fill="#FFF5EB"/>
  <text x="134" y="1138" fill="#171412" font-family="Helvetica, Arial, sans-serif" font-size="22" font-weight="700">Accessory</text>
  <text x="520" y="1138" fill="#6D625A" font-family="Helvetica, Arial, sans-serif" font-size="20" font-weight="700">78%</text>
  <rect x="108" y="1172" width="504" height="58" rx="22" fill="#FFF5EB"/>
  <text x="134" y="1208" fill="#171412" font-family="Helvetica, Arial, sans-serif" font-size="22" font-weight="700">Background Detail</text>
  <text x="502" y="1208" fill="#6D625A" font-family="Helvetica, Arial, sans-serif" font-size="20" font-weight="700">63%</text>
</svg>
